<svg width="48" height="48" viewBox="0 0 48 48" fill="none" xmlns="http://www.w3.org/2000/svg">
<path d="M23.9798 4C12.9398 4 3.99976 12.96 3.99976 24C3.99976 35.04 12.9398 44 23.9798 44C35.0398 44 43.9998 35.04 43.9998 24C43.9998 12.96 35.0398 4 23.9798 4ZM23.9998 40C15.1598 40 7.99976 32.84 7.99976 24C7.99976 15.16 15.1598 8 23.9998 8C32.8398 8 39.9998 15.16 39.9998 24C39.9998 32.84 32.8398 40 23.9998 40ZM24.9998 14H21.9998V26L32.4998 32.3L33.9998 29.84L24.9998 24.5V14Z" fill="#10D078"/>
</svg>
