<svg width="128" height="40" viewBox="0 0 128 40" fill="none" xmlns="http://www.w3.org/2000/svg">
    <path d="M45.5601 24.6802C45.5601 23.9402 45.7081 23.3481 45.8561 22.7561C46.0041 22.164 46.4481 21.5719 46.8922 21.1279C47.3362 20.6838 47.7803 20.3878 48.3723 20.0917C48.9644 19.7957 49.5564 19.6477 50.2965 19.6477C50.8886 19.6477 51.3326 19.7958 51.7767 19.9438C52.2207 20.0918 52.6647 20.3878 52.9608 20.6838V19.9438H55.329V29.4167H52.9608V28.6767C52.5167 28.9727 52.2207 29.2687 51.7767 29.4167C51.3326 29.5647 50.8886 29.7127 50.2965 29.7127C49.5564 29.7127 48.9644 29.5647 48.3723 29.2687C47.7803 28.9726 47.3362 28.6766 46.8922 28.2325C46.4481 27.7885 46.1521 27.3445 45.8561 26.6044C45.5601 25.8643 45.5601 25.4203 45.5601 24.6802ZM50.5925 27.4925C50.7406 27.4925 51.0366 27.4925 51.1846 27.4925C51.3326 27.4925 51.6286 27.3445 51.7767 27.3445C51.9247 27.1965 52.2207 27.0485 52.3687 26.9005C52.5167 26.7524 52.8128 26.4564 52.9608 26.3084V23.3481C52.8128 23.0521 52.5167 22.9041 52.3687 22.7561C52.2207 22.6081 51.9247 22.46 51.7767 22.312C51.6286 22.1639 51.3326 22.164 51.1846 22.164C51.0366 22.164 50.7406 22.164 50.5925 22.164C50.1485 22.164 49.8525 22.1639 49.5564 22.312C49.2604 22.46 48.9644 22.608 48.8164 22.9041C48.5203 23.2001 48.3723 23.4961 48.2243 23.7921C48.0763 24.0881 48.0763 24.5322 48.0763 24.8282C48.0763 25.1243 48.0763 25.5683 48.2243 25.8643C48.3723 26.1604 48.5203 26.4564 48.8164 26.7524C49.1124 27.0484 49.4084 27.1965 49.5564 27.3445C49.8525 27.4925 50.1485 27.4925 50.5925 27.4925ZM61.1016 22.164C59.9175 22.164 59.0294 22.904 59.0294 24.0882V29.4167H56.6611V24.0882C56.6611 21.8679 58.5853 19.7958 61.1016 19.7958C63.6178 19.7958 65.542 21.8679 65.542 24.0882V29.4167H63.1738V24.0882C63.1738 22.904 62.1377 22.164 61.1016 22.164ZM66.5781 24.6802C66.5781 23.9402 66.7261 23.3481 66.8741 22.7561C67.0221 22.164 67.4662 21.5719 67.9102 21.1279C68.3543 20.6838 68.7983 20.3878 69.3904 20.0917C69.9824 19.7957 70.5745 19.6477 71.3146 19.6477C71.9066 19.6477 72.3507 19.7958 72.7947 19.9438C73.2388 20.0918 73.6828 20.3878 73.9788 20.6838V16.9835H76.3471V29.2687H73.9788V28.5286C73.5348 28.8246 73.2388 29.1206 72.7947 29.2687C72.3507 29.4167 71.9066 29.5647 71.3146 29.5647C70.5745 29.5647 69.9824 29.4167 69.3904 29.1207C68.7983 28.8246 68.3543 28.5286 67.9102 28.0846C67.4662 27.6405 67.1702 27.1965 66.8741 26.4564C66.5781 25.7164 66.5781 25.4203 66.5781 24.6802ZM71.6106 27.4925C71.7586 27.4925 72.0546 27.4925 72.2026 27.4925C72.3507 27.4925 72.6467 27.3445 72.7947 27.3445C72.9427 27.1965 73.2388 27.0485 73.3868 26.9005C73.5348 26.7524 73.8308 26.4564 73.9788 26.3084V23.3481C73.8308 23.0521 73.5348 22.9041 73.3868 22.7561C73.2388 22.6081 72.9427 22.46 72.7947 22.312C72.6467 22.1639 72.3507 22.164 72.2026 22.164C72.0546 22.164 71.7586 22.164 71.6106 22.164C71.1665 22.164 70.8705 22.1639 70.5745 22.312C70.2785 22.46 69.9824 22.608 69.8344 22.9041C69.5384 23.2001 69.3904 23.4961 69.2424 23.7921C69.0943 24.0881 69.0943 24.5322 69.0943 24.8282C69.0943 25.1243 69.0943 25.5683 69.2424 25.8643C69.3904 26.1604 69.5384 26.4564 69.8344 26.7524C70.1304 27.0484 70.4265 27.1965 70.5745 27.3445C70.8705 27.4925 71.1665 27.4925 71.6106 27.4925ZM87.3001 27.4925C87.5961 27.4925 87.8922 27.4925 88.3362 27.3445C88.6322 27.1965 88.9283 27.0484 89.0763 26.7524C89.3723 26.4564 89.5203 26.1604 89.6683 25.8643C89.8164 25.5683 89.8164 25.1243 89.8164 24.8282C89.8164 24.5322 89.8164 24.0881 89.6683 23.7921C89.5203 23.4961 89.3723 23.2001 89.0763 22.9041C88.7803 22.608 88.4842 22.46 88.3362 22.312C88.0402 22.1639 87.7442 22.164 87.3001 22.164C87.0041 22.164 86.7081 22.1639 86.264 22.312C85.968 22.46 85.672 22.608 85.5239 22.9041C85.2279 23.2001 85.0799 23.4961 84.9319 23.7921C84.7839 24.0881 84.7839 24.5322 84.7839 24.8282C84.7839 25.1243 84.7839 25.5683 84.9319 25.8643C85.0799 26.1604 85.2279 26.4564 85.5239 26.7524C85.82 27.0484 86.116 27.1965 86.264 27.3445C86.56 27.3445 87.0041 27.4925 87.3001 27.4925ZM87.3001 29.7127C86.7081 29.7127 85.968 29.5647 85.3759 29.2687C84.7839 28.9726 84.1918 28.6766 83.7478 28.2325C83.3037 27.7885 83.0077 27.3445 82.7117 26.6044C82.4156 26.0124 82.2676 25.4203 82.2676 24.6802C82.2676 24.0882 82.4156 23.3481 82.7117 22.7561C83.0077 22.164 83.3037 21.5719 83.7478 21.1279C84.1918 20.6838 84.7839 20.3878 85.3759 20.0917C85.968 19.7957 86.56 19.6477 87.3001 19.6477C87.8922 19.6477 88.6322 19.7957 89.2243 20.0917C89.8164 20.3878 90.4084 20.6838 90.8525 21.1279C91.2965 21.5719 91.5925 22.016 91.8886 22.7561C92.1846 23.3481 92.3326 23.9402 92.3326 24.6802C92.3326 25.4203 92.1846 26.0124 91.8886 26.6044C91.5925 27.1965 91.2965 27.7885 90.8525 28.2325C90.4084 28.6766 89.8164 28.9726 89.2243 29.2687C88.6322 29.5647 88.0402 29.7127 87.3001 29.7127ZM94.4048 19.2037C94.2568 19.2037 93.9608 19.2037 93.8127 19.0557C93.6647 18.9077 93.5167 18.9077 93.3687 18.7597C93.2207 18.6117 93.0727 18.4637 93.0727 18.3156C92.9247 18.1676 92.9247 18.0196 92.9247 17.7236C92.9247 17.5755 92.9247 17.2795 93.0727 17.1315C93.2207 16.9834 93.2207 16.8354 93.3687 16.6874C93.5167 16.5394 93.6647 16.3914 93.8127 16.3914C93.9608 16.2434 94.1088 16.2434 94.4048 16.2434C94.5528 16.2434 94.8489 16.2434 94.9969 16.3914C95.1449 16.5394 95.2929 16.5394 95.4409 16.6874C95.5889 16.8354 95.7369 16.9834 95.7369 17.1315C95.8849 17.2795 95.8849 17.4275 95.8849 17.7236C95.8849 17.8716 95.8849 18.1676 95.7369 18.3156C95.5889 18.4637 95.5889 18.6117 95.4409 18.7597C95.2929 18.9077 95.1449 19.0557 94.9969 19.0557C94.7008 19.2037 94.7008 19.2037 94.4048 19.2037ZM93.2207 20.0917H95.5889V29.5647H93.2207V20.0917ZM96.773 24.6802C96.773 23.9402 96.9211 23.3481 97.0691 22.7561C97.3651 22.164 97.6611 21.5719 98.1052 21.1279C98.5492 20.6838 98.9932 20.3878 99.5853 20.0917C100.177 19.7957 100.769 19.6477 101.509 19.6477C102.102 19.6477 102.546 19.7958 102.99 19.9438C103.434 20.0918 103.878 20.3878 104.174 20.6838V16.9835H106.542V29.2687H104.174V28.5286C103.73 28.8246 103.434 29.1206 102.99 29.2687C102.546 29.4167 102.102 29.5647 101.509 29.5647C100.769 29.5647 100.177 29.4167 99.5853 29.1207C98.9932 28.8246 98.5492 28.5286 98.1052 28.0846C97.6611 27.6405 97.3651 27.1965 97.0691 26.4564C96.773 26.0124 96.773 25.4203 96.773 24.6802ZM101.658 27.4925C101.806 27.4925 102.102 27.4925 102.25 27.4925C102.398 27.4925 102.694 27.3445 102.842 27.3445C102.99 27.1965 103.286 27.0485 103.434 26.9005C103.582 26.7524 103.878 26.4564 104.026 26.3084V23.3481C103.878 23.0521 103.582 22.9041 103.434 22.7561C103.286 22.6081 102.99 22.46 102.842 22.312C102.694 22.1639 102.398 22.164 102.25 22.164C102.102 22.164 101.806 22.164 101.658 22.164C101.213 22.164 100.917 22.1639 100.621 22.312C100.325 22.46 100.029 22.608 99.8813 22.9041C99.5853 23.2001 99.4373 23.4961 99.2893 23.7921C99.1413 24.0881 99.1413 24.5322 99.1413 24.8282C99.1413 25.1243 99.1413 25.5683 99.2893 25.8643C99.4373 26.1604 99.5853 26.4564 99.8813 26.7524C100.177 27.0484 100.473 27.1965 100.621 27.3445C101.065 27.4925 101.361 27.4925 101.658 27.4925ZM82.1196 22.164C80.4915 22.164 79.8994 22.904 79.8994 24.0882V29.4167H77.5312V24.0882C77.5312 21.8679 78.8633 19.6477 82.1196 19.6477" fill="white"/>
    <path d="M25.2582 7.20945L26.4716 9.25301C24.3003 10.3386 22.8315 12.3822 22.8315 14.745H29.7285H36.6255C36.6255 12.3822 35.1567 10.2748 32.9854 9.25301L34.1987 7.20945C34.1987 7.20945 34.2626 7.08174 34.1349 7.01788C34.0072 6.95402 33.9433 7.08175 33.9433 7.08175L32.73 9.18914C31.8359 8.80598 30.7503 8.55053 29.6646 8.55053C28.579 8.55053 27.5572 8.80598 26.5993 9.18914L25.386 7.08175C25.386 7.08175 25.3221 6.95402 25.1944 7.01788C25.2582 7.1456 25.2582 7.20945 25.2582 7.20945ZM26.4716 11.2327C26.8548 11.2327 27.1102 11.552 27.1102 11.8713C27.1102 12.2545 26.7909 12.5099 26.4716 12.5099C26.0884 12.5099 25.833 12.2545 25.833 11.8713C25.833 11.552 26.0884 11.2327 26.4716 11.2327ZM33.0493 11.2327C33.4324 11.2327 33.6879 11.552 33.6879 11.8713C33.6879 12.2545 33.3686 12.5099 33.0493 12.5099C32.6661 12.5099 32.4107 12.2545 32.4107 11.8713C32.4107 11.552 32.6661 11.2327 33.0493 11.2327Z" fill="#A4C639"/>
    <path d="M22.7681 15.639V26.1122C22.7681 26.6231 23.4067 27.3255 23.9176 27.3255H25.5779V30.9018C25.5779 31.7958 26.2166 32.5621 27.0467 32.5621C27.8769 32.5621 28.5155 31.8597 28.5155 30.9018V27.3255H30.8784V30.9018C30.8784 31.7958 31.517 32.5621 32.3472 32.5621C33.1774 32.5621 33.816 31.8597 33.816 30.9018V27.3255H35.4763C35.9872 27.3255 36.6259 26.6231 36.6259 26.1122V15.639H22.7681Z" fill="#A4C639"/>
    <path d="M20.4688 15.3836C21.299 15.3836 21.9376 16.1499 21.9376 17.044V23.2385C21.9376 24.1325 21.299 24.8988 20.4688 24.8988C19.6386 24.8988 19 24.1325 19 23.2385V17.044C19 16.1499 19.7025 15.3836 20.4688 15.3836Z" fill="#A4C639"/>
    <path d="M39.0524 15.3836C39.8826 15.3836 40.5212 16.1499 40.5212 17.044V23.2385C40.5212 24.1325 39.8826 24.8988 39.0524 24.8988C38.2222 24.8988 37.5836 24.1325 37.5836 23.2385V17.044C37.5198 16.1499 38.2222 15.3836 39.0524 15.3836Z" fill="#A4C639"/>
    <path d="M45.6298 8.55057H46.8431C47.6733 8.55057 48.2481 8.67829 48.6312 8.86987C49.0144 9.06145 49.3337 9.38076 49.5891 9.82778C49.8446 10.2748 49.9723 10.7857 49.9723 11.3604C49.9723 11.8075 49.9084 12.1906 49.7807 12.5099C49.653 12.8931 49.4614 13.1485 49.206 13.404C48.9505 13.6594 48.6951 13.7871 48.3758 13.9149C48.0565 13.9787 47.6095 14.0426 46.8431 14.0426H45.5659V8.55057H45.6298ZM46.7154 9.57234V13.0208H47.2263C47.7372 13.0208 48.0565 12.957 48.2481 12.8292C48.4396 12.7015 48.6312 12.5099 48.759 12.2545C48.8867 11.9991 48.9505 11.6798 48.9505 11.2966C48.9505 10.7218 48.759 10.2748 48.4397 9.95551C48.1203 9.63621 47.6733 9.50848 47.0347 9.50848H46.7154V9.57234Z" fill="white"/>
    <path d="M53.6124 8.42285C54.3787 8.42285 55.0812 8.67829 55.5921 9.25303C56.103 9.82778 56.4223 10.5303 56.4223 11.2966C56.4223 12.1268 56.1668 12.7654 55.5921 13.3401C55.0173 13.9149 54.3787 14.1703 53.5485 14.1703C52.7183 14.1703 52.0159 13.9149 51.505 13.3401C50.9941 12.7654 50.6748 12.0629 50.6748 11.2966C50.6748 10.7857 50.8025 10.2748 51.058 9.82778C51.3134 9.38075 51.6327 9.06144 52.0797 8.806C52.5268 8.55056 53.1015 8.42285 53.6124 8.42285ZM53.6124 9.44461C53.1015 9.44461 52.6545 9.6362 52.3352 9.95551C52.0159 10.3387 51.8243 10.7857 51.8243 11.2966C51.8243 11.9352 52.0159 12.3822 52.4629 12.7654C52.7822 13.0208 53.1654 13.2124 53.6124 13.2124C54.1233 13.2124 54.5064 13.0208 54.8896 12.7015C55.2728 12.3822 55.4005 11.8713 55.4005 11.3604C55.4005 10.8495 55.2089 10.4025 54.8896 10.0194C54.5703 9.63621 54.1233 9.44461 53.6124 9.44461Z" fill="white"/>
    <path d="M57.0605 8.55057H58.0823L58.8486 12.0629L59.8066 8.55057H60.7006L61.7224 12.0629L62.4887 8.55057H63.5105L62.2971 14.0426H61.2753L60.2536 10.4664L59.2318 14.0426H58.21L57.0605 8.55057Z" fill="white"/>
    <path d="M64.3408 8.55057H65.3626L67.7254 12.1906V8.55057H68.7472V14.0426H67.7254L65.3626 10.4025V14.0426H64.3408V8.55057Z" fill="white"/>
    <path d="M70.0244 8.55057H71.0462V13.0847H72.5788V14.1065H70.0244V8.55057Z" fill="white"/>
    <path d="M75.9635 8.42285C76.7298 8.42285 77.4323 8.67829 77.9431 9.25303C78.454 9.82778 78.7733 10.5303 78.7733 11.2966C78.7733 12.1268 78.5179 12.7654 77.9431 13.3401C77.3684 13.9149 76.7298 14.1703 75.8996 14.1703C75.0694 14.1703 74.3669 13.9149 73.8561 13.3401C73.2813 12.7654 73.0259 12.0629 73.0259 11.2966C73.0259 10.7857 73.1536 10.2748 73.409 9.82778C73.6645 9.38075 73.9838 9.06144 74.4308 8.806C75.0055 8.55056 75.4526 8.42285 75.9635 8.42285ZM75.9635 9.44461C75.4526 9.44461 75.0055 9.6362 74.6862 9.95551C74.3669 10.3387 74.1754 10.7857 74.1754 11.2966C74.1754 11.9352 74.3669 12.3822 74.814 12.7654C75.1333 13.0208 75.5164 13.2124 75.9635 13.2124C76.4743 13.2124 76.8575 13.0208 77.2407 12.7015C77.6238 12.3822 77.7516 11.8713 77.7516 11.3604C77.7516 10.8495 77.56 10.4025 77.2407 10.0194C76.9214 9.63621 76.4743 9.44461 75.9635 9.44461Z" fill="white"/>
    <path d="M81.5195 8.55057H82.6051L84.7125 14.0426H83.6269L83.1799 12.8931H80.9448L80.4977 14.0426H79.4121L81.5195 8.55057ZM82.0304 10.0194L81.2641 11.9352H82.7329L82.0304 10.0194Z" fill="white"/>
    <path d="M85.4789 8.55057H86.6923C87.5224 8.55057 88.0972 8.67829 88.4803 8.86987C88.8635 9.06145 89.1828 9.38076 89.4383 9.82778C89.6937 10.2748 89.8214 10.7857 89.8214 11.3604C89.8214 11.8075 89.7576 12.1906 89.6298 12.5099C89.5021 12.8292 89.3105 13.1485 89.0551 13.404C88.7996 13.6594 88.5442 13.7871 88.2249 13.9149C87.9056 13.9787 87.4586 14.0426 86.6923 14.0426H85.415V8.55057H85.4789ZM86.5645 9.57234V13.0208H87.0754C87.5863 13.0208 87.9056 12.957 88.0972 12.8292C88.2888 12.7015 88.4804 12.5099 88.6081 12.2545C88.7358 11.9991 88.7996 11.6798 88.7996 11.2966C88.7996 10.7218 88.6081 10.2748 88.2888 9.95551C87.9695 9.63621 87.5224 9.50848 86.8838 9.50848H86.5645V9.57234Z" fill="white"/>
    <path d="M94.6748 8.55057H95.7604L97.8678 14.0426H96.7822L96.3352 12.8931H94.1001L93.653 14.0426H92.5674L94.6748 8.55057ZM95.2495 10.0194L94.4832 11.9352H95.952L95.2495 10.0194Z" fill="white"/>
    <path d="M98.6978 8.55057H99.7834C100.358 8.55057 100.805 8.61444 101.061 8.74216C101.316 8.86988 101.508 9.06146 101.699 9.25304C101.891 9.44462 101.955 9.82778 101.955 10.1471C101.955 10.5302 101.827 10.8496 101.635 11.105C101.444 11.3604 101.188 11.552 100.805 11.6159C100.614 11.6798 100.23 11.6797 99.7195 11.6797V14.0426H98.6978V8.55057ZM99.7195 10.7218H100.039C100.294 10.7218 100.486 10.7218 100.614 10.658C100.741 10.5941 100.805 10.5302 100.869 10.4664C100.933 10.4025 100.933 10.2748 100.933 10.1471C100.933 9.9555 100.869 9.76393 100.677 9.70007C100.55 9.63621 100.358 9.57234 100.039 9.57234H99.7195V10.7218Z" fill="white"/>
    <path d="M102.977 8.55057H104.062V10.4664L105.531 8.55057H106.808L104.892 10.9773L107 14.0426H105.786L104.062 11.6159V14.0426H102.977V8.55057Z" fill="white"/>
</svg>
