<svg width="128" height="40" viewBox="0 0 128 40" fill="none" 
  xmlns="http://www.w3.org/2000/svg">
  <path d="M33.2631 20.1591C33.2392 17.5081 35.4343 16.2184 35.5346 16.1584C34.2915 14.3464 32.3646 14.0988 31.6875 14.0791C30.0692 13.9088 28.4994 15.0472 27.675 15.0472C26.8342 15.0472 25.5647 14.0955 24.1965 14.1235C22.4358 14.1506 20.7887 15.1697 19.8853 16.7522C18.021 19.979 19.4114 24.7208 21.1976 27.329C22.0911 28.6072 23.1352 30.0327 24.5017 29.9825C25.8387 29.9282 26.3381 29.1312 27.9515 29.1312C29.55 29.1312 30.019 29.9825 31.4127 29.9504C32.8476 29.9282 33.7509 28.6673 34.6132 27.3784C35.6457 25.9151 36.0604 24.4724 36.0768 24.3984C36.0439 24.3869 33.291 23.3357 33.2631 20.1591V20.1591ZM30.6303 12.3633C31.3494 11.4643 31.8414 10.2412 31.7048 9C30.664 9.04606 29.3625 9.71971 28.6129 10.599C27.9498 11.3738 27.3574 12.6438 27.5105 13.8381C28.6796 13.9252 29.88 13.2483 30.6303 12.3633V12.3633Z" fill="white"/>
  <path d="M52.6277 29.7998H50.7593L49.7358 26.5845H46.1783L45.2034 29.7998H43.3843L46.9097 18.8537H49.0867L52.6277 29.7998V29.7998ZM49.4273 25.2356L48.5017 22.3774C48.4038 22.0854 48.2195 21.3977 47.9497 20.3153H47.9167C47.8081 20.7808 47.6345 21.4685 47.3968 22.3774L46.4868 25.2356H49.4273ZM61.6762 25.7563C61.6762 27.0986 61.3117 28.1597 60.582 28.9386C59.9287 29.632 59.1167 29.9783 58.1483 29.9783C57.1026 29.9783 56.3506 29.6057 55.894 28.8588V33.0002H54.1399V24.5011C54.1399 23.658 54.1177 22.7936 54.0749 21.9069H55.6176L55.7155 23.1579H55.7484C56.3334 22.2153 57.2211 21.744 58.4124 21.744C59.3438 21.744 60.1212 22.1117 60.7432 22.8478C61.3644 23.5856 61.6762 24.5546 61.6762 25.7563ZM59.8892 25.8204C59.8892 25.0522 59.7165 24.4189 59.3693 23.9196C58.99 23.4006 58.4807 23.1407 57.8423 23.1407C57.4095 23.1407 57.0162 23.2854 56.6649 23.5708C56.3128 23.8587 56.0824 24.2346 55.9746 24.7002C55.9265 24.8743 55.8992 25.0534 55.8932 25.234V26.5508C55.8932 27.1241 56.0693 27.6086 56.4214 28.005C56.7735 28.3999 57.231 28.5981 57.7937 28.5981C58.4544 28.5981 58.9686 28.3423 59.3364 27.8348C59.7049 27.3256 59.8892 26.6545 59.8892 25.8204V25.8204ZM70.7568 25.7563C70.7568 27.0986 70.3923 28.1597 69.6625 28.9386C69.0085 29.632 68.1972 29.9783 67.2281 29.9783C66.1824 29.9783 65.4304 29.6057 64.9738 28.8588V33.0002H63.2197V24.5011C63.2197 23.658 63.1975 22.7936 63.1547 21.9069H64.6973L64.7952 23.1579H64.8281C65.4123 22.2153 66.3 21.744 67.4922 21.744C68.4227 21.744 69.2002 22.1117 69.8238 22.8478C70.4441 23.5856 70.7568 24.5546 70.7568 25.7563V25.7563ZM68.969 25.8204C68.969 25.0522 68.7954 24.4189 68.4482 23.9196C68.0689 23.4006 67.5613 23.1407 66.9228 23.1407C66.4901 23.1407 66.0968 23.2854 65.7438 23.5708C65.3917 23.8587 65.1622 24.2346 65.0544 24.7002C65.0009 24.9173 64.9721 25.0941 64.9721 25.234V26.5508C64.9721 27.1241 65.149 27.6086 65.4995 28.005C65.8516 28.399 66.3091 28.5981 66.8735 28.5981C67.5349 28.5981 68.0492 28.3423 68.4161 27.8348C68.7847 27.3256 68.969 26.6545 68.969 25.8204V25.8204ZM80.9094 26.7293C80.9094 27.6612 80.5836 28.4188 79.9361 29.0036C79.2236 29.6419 78.2289 29.9618 76.9537 29.9618C75.7755 29.9618 74.831 29.7348 74.1185 29.2799L74.5241 27.8183C75.2934 28.274 76.1383 28.501 77.0581 28.501C77.7196 28.501 78.2338 28.3513 78.6008 28.0544C78.9685 27.7566 79.1545 27.3585 79.1545 26.8617C79.1545 26.4168 79.0006 26.0442 78.6987 25.7406C78.3951 25.438 77.8932 25.1558 77.1881 24.8967C75.2711 24.182 74.3118 23.1365 74.3118 21.7613C74.3118 20.8631 74.6508 20.1278 75.3271 19.5528C76.0034 18.9787 76.9002 18.6917 78.0158 18.6917C79.0121 18.6917 79.8423 18.8652 80.5013 19.2115L80.0611 20.641C79.4408 20.3054 78.7406 20.1376 77.9574 20.1376C77.3387 20.1376 76.8533 20.2898 76.5061 20.5925C76.214 20.8631 76.0659 21.1929 76.0659 21.5845C76.0659 22.0163 76.2346 22.3749 76.5703 22.6562C76.8615 22.9153 77.393 23.1974 78.1614 23.5001C79.1043 23.8801 79.797 24.3226 80.2405 24.8309C80.6872 25.3393 80.9094 25.9734 80.9094 26.7293ZM86.7237 23.2229H84.7902V27.055C84.7902 28.0297 85.1308 28.5158 85.8137 28.5158C86.1272 28.5158 86.3872 28.4895 86.5929 28.4344L86.6414 29.7661C86.2958 29.8952 85.8409 29.9602 85.2773 29.9602C84.5845 29.9602 84.0432 29.7488 83.6524 29.326C83.2632 28.9032 83.0674 28.195 83.0674 27.1981V23.2196H81.9156V21.9036H83.0674V20.4584L84.7902 19.9386V21.9036H86.7237V23.2229V23.2229ZM95.4299 25.7884C95.4299 27.0016 95.0827 27.9976 94.3899 28.7766C93.6651 29.5785 92.7009 29.9783 91.4988 29.9783C90.3388 29.9783 89.4165 29.5941 88.7287 28.8267C88.0409 28.0577 87.697 27.0888 87.697 25.92C87.697 24.6969 88.0524 23.695 88.7608 22.9161C89.4708 22.1364 90.4268 21.7465 91.6288 21.7465C92.7873 21.7465 93.7178 22.1314 94.422 22.8997C95.095 23.6449 95.4299 24.6072 95.4299 25.7884ZM93.6116 25.8287C93.6116 25.1057 93.4553 24.4855 93.1418 23.9665C92.7741 23.3397 92.2475 23.0263 91.5655 23.0263C90.8629 23.0263 90.324 23.3397 89.957 23.9665C89.6427 24.4855 89.4864 25.1164 89.4864 25.8616C89.4864 26.5854 89.6427 27.2072 89.957 27.7246C90.3363 28.3513 90.8653 28.6647 91.5507 28.6647C92.2212 28.6647 92.7469 28.3447 93.127 27.7089C93.4496 27.1776 93.6116 26.5533 93.6116 25.8287ZM101.134 23.4491C100.951 23.4162 100.766 23.3999 100.581 23.4006C99.964 23.4006 99.4868 23.6325 99.1511 24.0997C98.8599 24.511 98.7134 25.0308 98.7134 25.6584V29.7998H96.9594V24.3925C96.9609 23.564 96.9439 22.7355 96.9083 21.9077H98.4362L98.5003 23.4178H98.5489C98.7348 22.8988 99.0261 22.4802 99.4259 22.1668C99.7919 21.893 100.237 21.7447 100.694 21.744C100.856 21.744 101.002 21.7555 101.132 21.7761L101.134 23.4491V23.4491ZM108.979 25.4799C108.983 25.7465 108.962 26.0129 108.915 26.2753H103.652C103.672 27.055 103.927 27.6522 104.416 28.0634C104.859 28.4303 105.433 28.6145 106.137 28.6145C106.916 28.6145 107.627 28.4912 108.266 28.2419L108.541 29.4584C107.794 29.7842 106.912 29.9462 105.894 29.9462C104.67 29.9462 103.709 29.5859 103.01 28.867C102.312 28.1473 101.962 27.1801 101.962 25.9685C101.962 24.7791 102.287 23.788 102.938 22.9975C103.619 22.1536 104.54 21.7317 105.698 21.7317C106.836 21.7317 107.698 22.1536 108.283 22.9975C108.746 23.6662 108.979 24.4954 108.979 25.4799V25.4799ZM107.306 25.0251C107.318 24.5044 107.203 24.0561 106.966 23.6769C106.662 23.1884 106.195 22.9449 105.568 22.9449C104.995 22.9449 104.528 23.1826 104.172 23.6597C103.88 24.0389 103.707 24.4945 103.653 25.0234L107.306 25.0251Z" fill="white"/>
  <path d="M45.6724 14.983C45.1845 14.983 44.7624 14.9592 44.4111 14.9189V9.62676C44.9025 9.55088 45.399 9.51348 45.8962 9.5149C47.9078 9.5149 48.8342 10.5044 48.8342 12.1174C48.8342 13.9779 47.7399 14.983 45.6724 14.983ZM45.9669 10.1935C45.6954 10.1935 45.4642 10.2099 45.2725 10.2494V14.2724C45.3762 14.2888 45.5753 14.2962 45.855 14.2962C47.1731 14.2962 47.9234 13.5461 47.9234 12.1412C47.9234 10.8885 47.2446 10.1935 45.9669 10.1935V10.1935ZM51.7212 15.0233C50.5874 15.0233 49.8527 14.1769 49.8527 13.0279C49.8527 11.8303 50.6031 10.9765 51.7853 10.9765C52.9026 10.9765 53.6538 11.7826 53.6538 12.9645C53.6538 14.1769 52.8796 15.0233 51.7212 15.0233ZM51.7541 11.6066C51.1312 11.6066 50.7322 12.1889 50.7322 13.0032C50.7322 13.8019 51.1395 14.3842 51.7458 14.3842C52.3522 14.3842 52.7594 13.7616 52.7594 12.9868C52.7594 12.1971 52.3604 11.6066 51.7541 11.6066ZM60.1188 11.0563L58.9053 14.9353H58.1146L57.6119 13.2508C57.487 12.8387 57.3829 12.4206 57.3001 11.9981H57.2837C57.2203 12.4209 57.1002 12.8445 56.9727 13.2508L56.4379 14.9353H55.639L54.4971 11.0563H55.3832L55.8225 12.9004C55.9262 13.3396 56.0134 13.7542 56.0858 14.1457H56.1022C56.1656 13.8191 56.2692 13.4112 56.4214 12.9086L56.9727 11.0571H57.6753L58.2027 12.8691C58.3302 13.3084 58.4339 13.7394 58.5145 14.1465H58.5375C58.5935 13.7476 58.6815 13.324 58.8008 12.8691L59.2722 11.0571L60.1188 11.0563V11.0563ZM64.5863 14.9353H63.7241V12.7079C63.7241 12.0219 63.4608 11.6781 62.9416 11.6781C62.4307 11.6781 62.0794 12.1174 62.0794 12.6281V14.9353H61.2172V12.1651C61.2172 11.8221 61.209 11.4544 61.1851 11.0555H61.9437L61.984 11.6543H62.0078C62.2398 11.2397 62.7104 10.9765 63.2378 10.9765C64.0523 10.9765 64.5871 11.5992 64.5871 12.6125L64.5863 14.9353V14.9353ZM66.964 14.9353H66.101V9.27637H66.964V14.9353ZM70.1077 15.0233C68.9748 15.0233 68.2392 14.1769 68.2392 13.0279C68.2392 11.8303 68.9896 10.9765 70.171 10.9765C71.2891 10.9765 72.0395 11.7826 72.0395 12.9645C72.0403 14.1769 71.2653 15.0233 70.1077 15.0233ZM70.1398 11.6066C69.517 11.6066 69.1179 12.1889 69.1179 13.0032C69.1179 13.8019 69.526 14.3842 70.1307 14.3842C70.7379 14.3842 71.1443 13.7616 71.1443 12.9868C71.1452 12.1971 70.7469 11.6066 70.1398 11.6066V11.6066ZM75.439 14.9353L75.3765 14.4887H75.3535C75.0902 14.8481 74.706 15.0233 74.2189 15.0233C73.5237 15.0233 73.03 14.5364 73.03 13.8817C73.03 12.9242 73.8602 12.4291 75.2975 12.4291V12.3575C75.2975 11.8467 75.0268 11.5909 74.492 11.5909C74.1095 11.5909 73.7738 11.6872 73.4784 11.8788L73.3032 11.3121C73.6619 11.0884 74.1095 10.9765 74.6352 10.9765C75.6488 10.9765 76.1606 11.5112 76.1606 12.5813V14.01C76.1606 14.4015 76.1778 14.705 76.2165 14.9361L75.439 14.9353V14.9353ZM75.3205 13.0032C74.3629 13.0032 73.8824 13.2352 73.8824 13.7854C73.8824 14.1926 74.13 14.3916 74.4739 14.3916C74.9125 14.3916 75.3205 14.0569 75.3205 13.602V13.0032V13.0032ZM80.3475 14.9353L80.3072 14.3127H80.2833C80.0356 14.7831 79.6193 15.0233 79.0377 15.0233C78.1022 15.0233 77.4095 14.2008 77.4095 13.0435C77.4095 11.8303 78.1277 10.9757 79.1084 10.9757C79.6276 10.9757 79.9953 11.1509 80.2027 11.5029H80.2199V9.27637H81.083V13.8899C81.083 14.2649 81.092 14.6162 81.1151 14.9353H80.3475ZM80.2199 12.6528C80.2199 12.1099 79.8604 11.6469 79.3116 11.6469C78.6724 11.6469 78.2816 12.2136 78.2816 13.0114C78.2816 13.7936 78.6872 14.3291 79.2944 14.3291C79.8366 14.3291 80.2199 13.8578 80.2199 13.2993V12.6528ZM86.555 15.0233C85.4221 15.0233 84.6874 14.1769 84.6874 13.0279C84.6874 11.8303 85.4377 10.9765 86.6192 10.9765C87.7373 10.9765 88.4876 11.7826 88.4876 12.9645C88.4885 14.1769 87.7143 15.0233 86.555 15.0233ZM86.5871 11.6066C85.9651 11.6066 85.5661 12.1889 85.5661 13.0032C85.5661 13.8019 85.9733 14.3842 86.5789 14.3842C87.1861 14.3842 87.5925 13.7616 87.5925 12.9868C87.5941 12.1971 87.1951 11.6066 86.5871 11.6066ZM93.1246 14.9353H92.2615V12.7079C92.2615 12.0219 91.9982 11.6781 91.4791 11.6781C90.9682 11.6781 90.6177 12.1174 90.6177 12.6281V14.9353H89.7546V12.1651C89.7546 11.8221 89.7464 11.4544 89.7226 11.0555H90.4811L90.5214 11.6543H90.5453C90.7765 11.2397 91.2479 10.9757 91.7745 10.9757C92.589 10.9757 93.1246 11.5983 93.1246 12.6117V14.9353ZM98.9257 11.7028H97.9771V13.5864C97.9771 14.0659 98.1433 14.3053 98.4789 14.3053C98.6312 14.3053 98.7587 14.2888 98.8615 14.2649L98.8854 14.9197C98.7184 14.9838 98.4946 15.0159 98.2165 15.0159C97.5369 15.0159 97.1305 14.6408 97.1305 13.6588V11.7028H96.5644V11.0563H97.1305V10.3456L97.9771 10.0898V11.0555H98.9257V11.7028V11.7028ZM103.49 14.9353H102.629V12.7244C102.629 12.0302 102.366 11.6789 101.846 11.6789C101.4 11.6789 100.983 11.9825 100.983 12.5969V14.9353H100.122V9.27637H100.983V11.6066H101.001C101.272 11.1838 101.665 10.9757 102.167 10.9757C102.988 10.9757 103.49 11.614 103.49 12.6281V14.9353V14.9353ZM108.167 13.2031H105.579C105.596 13.9376 106.082 14.3521 106.802 14.3521C107.184 14.3521 107.536 14.288 107.847 14.1687L107.982 14.7675C107.615 14.9271 107.183 15.0069 106.68 15.0069C105.466 15.0069 104.748 14.2403 104.748 13.0517C104.748 11.8624 105.484 10.9683 106.583 10.9683C107.574 10.9683 108.196 11.7028 108.196 12.8124C108.202 12.9433 108.192 13.0745 108.167 13.2031V13.2031ZM107.376 12.5887C107.376 11.9899 107.074 11.5671 106.523 11.5671C106.028 11.5671 105.636 11.9981 105.58 12.5887H107.376V12.5887Z" fill="white"/>
</svg>
