<svg width="48" height="48" viewBox="0 0 48 48" fill="none" xmlns="http://www.w3.org/2000/svg">
<path d="M18.0002 6.5C9.16024 6.5 2.00024 13.66 2.00024 22.5C2.00024 31.34 9.16024 38.5 18.0002 38.5C26.8402 38.5 34.0002 31.34 34.0002 22.5C34.0002 13.66 26.8402 6.5 18.0002 6.5ZM18.0002 34.5C11.3802 34.5 6.00024 29.12 6.00024 22.5C6.00024 15.88 11.3802 10.5 18.0002 10.5C24.6202 10.5 30.0002 15.88 30.0002 22.5C30.0002 29.12 24.6202 34.5 18.0002 34.5ZM34.0002 7.02V11.2C38.6602 12.84 42.0002 17.28 42.0002 22.5C42.0002 27.72 38.6602 32.16 34.0002 33.8V37.98C40.9002 36.2 46.0002 29.96 46.0002 22.5C46.0002 15.04 40.9002 8.8 34.0002 7.02Z" fill="#10D078"/>
</svg>
