<svg width="48" height="48" viewBox="0 0 48 48" fill="none" xmlns="http://www.w3.org/2000/svg">
<path d="M17.9998 27.5C13.3198 27.5 3.99976 29.84 3.99976 34.5V38H31.9998V34.5C31.9998 29.84 22.6798 27.5 17.9998 27.5ZM8.67976 34C10.3598 32.84 14.4198 31.5 17.9998 31.5C21.5798 31.5 25.6398 32.84 27.3198 34H8.67976ZM17.9998 24C21.8598 24 24.9998 20.86 24.9998 17C24.9998 13.14 21.8598 10 17.9998 10C14.1398 10 10.9998 13.14 10.9998 17C10.9998 20.86 14.1398 24 17.9998 24ZM17.9998 14C19.6598 14 20.9998 15.34 20.9998 17C20.9998 18.66 19.6598 20 17.9998 20C16.3398 20 14.9998 18.66 14.9998 17C14.9998 15.34 16.3398 14 17.9998 14ZM32.0798 27.62C34.3998 29.3 35.9998 31.54 35.9998 34.5V38H43.9998V34.5C43.9998 30.46 36.9998 28.16 32.0798 27.62ZM29.9998 24C33.8598 24 36.9998 20.86 36.9998 17C36.9998 13.14 33.8598 10 29.9998 10C28.9198 10 27.9198 10.26 26.9998 10.7C28.2598 12.48 28.9998 14.66 28.9998 17C28.9998 19.34 28.2598 21.52 26.9998 23.3C27.9198 23.74 28.9198 24 29.9998 24Z" fill="#10D078"/>
</svg>
