<svg width="128" height="40" viewBox="0 0 128 40" fill="none" 
  xmlns="http://www.w3.org/2000/svg">
  <path d="M46.1165 10.9858C46.1469 11.6414 45.9072 12.2807 45.4532 12.7547C44.9459 13.2816 44.2384 13.5678 43.5075 13.5418C42.7719 13.549 42.0645 13.2594 41.5452 12.7384C41.0258 12.2174 40.7385 11.5091 40.748 10.7735C40.7385 10.038 41.0258 9.32965 41.5452 8.80867C42.0645 8.28769 42.7719 7.99805 43.5075 8.00526C43.8814 8.00401 44.2516 8.07926 44.5953 8.22637C44.9154 8.35545 45.2003 8.55852 45.4267 8.81894L44.9579 9.28769C44.6 8.86199 44.0628 8.62939 43.5075 8.65974C42.9508 8.65709 42.417 8.88069 42.0285 9.27926C41.6399 9.67783 41.4299 10.2172 41.4467 10.7735C41.4349 11.6166 41.9314 12.3839 42.7052 12.7186C43.4791 13.0533 44.3783 12.8896 44.9845 12.3036C45.2566 12.0087 45.4136 11.6257 45.4267 11.2246H43.5075V10.5878H46.0812C46.1048 10.7192 46.1166 10.8523 46.1165 10.9858Z" fill="white" stroke="white" stroke-width="0.2"/>
  <path d="M50.1669 8.7746H47.779V10.455H49.9547V11.0918H47.779V12.7722H50.1669V13.4267H47.0714V8.12012H50.1669V8.7746Z" fill="white" stroke="white" stroke-width="0.2"/>
  <path d="M53.0679 13.4267H52.3868V8.7746H50.901V8.12012H54.5891V8.7746H53.0679V13.4267Z" fill="white" stroke="white" stroke-width="0.2"/>
  <path d="M57.1892 13.4267V8.12012H57.8702V13.4267H57.1892Z" fill="white" stroke="white" stroke-width="0.2"/>
  <path d="M60.8953 13.4267H60.2142V8.7746H58.7284V8.12012H62.3723V8.7746H60.8953V13.4267Z" fill="white" stroke="white" stroke-width="0.2"/>
  <path fill-rule="evenodd" clip-rule="evenodd" d="M64.61 10.7736C64.5939 11.5062 64.8746 12.2144 65.3883 12.737C66.4647 13.8074 68.2035 13.8074 69.2798 12.737C69.7936 12.2144 70.0743 11.5062 70.0581 10.7736C70.0743 10.0409 69.7936 9.33273 69.2798 8.81011C68.7651 8.29161 68.0647 8 67.3341 8C66.6035 8 65.9031 8.29161 65.3883 8.81011C64.8746 9.33273 64.5939 10.0409 64.61 10.7736ZM68.7756 12.2951C67.9784 13.0889 66.6895 13.0889 65.8924 12.2951C65.4956 11.8901 65.2816 11.3406 65.2998 10.7739C65.2721 10.2123 65.4731 9.66349 65.857 9.25266C66.6541 8.45882 67.9431 8.45882 68.7402 9.25266C69.1499 9.65173 69.3771 10.202 69.3682 10.7739C69.3864 11.3406 69.1723 11.8901 68.7756 12.2951Z" fill="white"/>
  <path d="M65.3883 12.737L65.317 12.8071L65.3178 12.8079L65.3883 12.737ZM64.61 10.7736L64.7101 10.7758L64.71 10.7713L64.61 10.7736ZM69.2798 12.737L69.3504 12.8079L69.3512 12.8071L69.2798 12.737ZM70.0581 10.7736L69.9581 10.7713L69.9582 10.7758L70.0581 10.7736ZM69.2798 8.81011L69.3512 8.74001L69.3508 8.73966L69.2798 8.81011ZM65.3883 8.81011L65.3174 8.73966L65.317 8.74001L65.3883 8.81011ZM65.8924 12.2951L65.8209 12.3651L65.8218 12.366L65.8924 12.2951ZM68.7756 12.2951L68.8462 12.366L68.847 12.3651L68.7756 12.2951ZM65.2998 10.7739L65.4001 10.7771L65.3997 10.769L65.2998 10.7739ZM65.857 9.25266L65.7864 9.18175L65.7839 9.18439L65.857 9.25266ZM68.7402 9.25266L68.6697 9.32352L68.6705 9.32429L68.7402 9.25266ZM69.3682 10.7739L69.2681 10.7723L69.2682 10.7771L69.3682 10.7739ZM65.4596 12.6669C64.9648 12.1635 64.6944 11.4815 64.71 10.7758L64.5101 10.7713C64.4933 11.531 64.7843 12.2652 65.317 12.8071L65.4596 12.6669ZM69.2093 12.6661C68.172 13.6977 66.4962 13.6977 65.4589 12.6661L65.3178 12.8079C66.4332 13.9171 68.235 13.9171 69.3504 12.8079L69.2093 12.6661ZM69.9582 10.7758C69.9738 11.4815 69.7034 12.1635 69.2085 12.6669L69.3512 12.8071C69.8839 12.2652 70.1749 11.531 70.1581 10.7713L69.9582 10.7758ZM69.2085 8.88022C69.7034 9.38359 69.9738 10.0656 69.9582 10.7713L70.1581 10.7758C70.1749 10.0161 69.8839 9.28188 69.3512 8.74001L69.2085 8.88022ZM67.3341 8.1C68.0381 8.1 68.7129 8.38097 69.2089 8.88056L69.3508 8.73966C68.8173 8.20225 68.0914 7.9 67.3341 7.9V8.1ZM65.4593 8.88056C65.9553 8.38097 66.6301 8.1 67.3341 8.1V7.9C66.5768 7.9 65.8509 8.20225 65.3174 8.73966L65.4593 8.88056ZM64.71 10.7713C64.6944 10.0656 64.9648 9.38359 65.4596 8.88022L65.317 8.74001C64.7843 9.28188 64.4933 10.0161 64.5101 10.7758L64.71 10.7713ZM65.8218 12.366C66.658 13.1987 68.01 13.1987 68.8462 12.366L68.705 12.2242C67.9469 12.9792 66.7211 12.9792 65.9629 12.2242L65.8218 12.366ZM65.1998 10.7707C65.1807 11.3646 65.4051 11.9406 65.8209 12.3651L65.9638 12.2251C65.5861 11.8396 65.3824 11.3165 65.3997 10.7771L65.1998 10.7707ZM65.7839 9.18439C65.3816 9.61499 65.1709 10.1902 65.1999 10.7788L65.3997 10.769C65.3733 10.2344 65.5647 9.71199 65.93 9.32093L65.7839 9.18439ZM68.8108 9.1818C67.9746 8.34911 66.6226 8.34911 65.7864 9.1818L65.9275 9.32351C66.6857 8.56853 67.9115 8.56853 68.6697 9.32351L68.8108 9.1818ZM69.4682 10.7754C69.4775 10.176 69.2394 9.5993 68.81 9.18102L68.6705 9.32429C69.0604 9.70416 69.2767 10.228 69.2682 10.7723L69.4682 10.7754ZM68.847 12.3651C69.2629 11.9406 69.4872 11.3646 69.4681 10.7707L69.2682 10.7771C69.2856 11.3165 69.0818 11.8396 68.7042 12.2251L68.847 12.3651Z" fill="white"/>
  <path d="M71.0219 13.4267V8.12012H71.8532L74.4358 12.2504V12.2504V11.2245V8.12012H75.1168V13.4267H74.4092L71.7029 9.10184V9.10184V10.1278V13.4267H71.0219Z" fill="white" stroke="white" stroke-width="0.2"/>
  <path fill-rule="evenodd" clip-rule="evenodd" d="M46.3992 22.3241V23.916H50.22C50.1601 24.6659 49.8484 25.3734 49.3356 25.9237C48.5626 26.711 47.4929 27.1351 46.3904 27.0912C44.0458 27.0912 42.1451 25.1905 42.1451 22.8459C42.1451 20.5013 44.0458 18.6006 46.3904 18.6006C47.4675 18.583 48.5075 18.9933 49.2825 19.7415L50.4057 18.6183C49.3488 17.548 47.9034 16.9514 46.3992 16.9644C44.258 16.8811 42.2428 17.9759 41.1474 19.8176C40.052 21.6594 40.052 23.9528 41.1474 25.7945C42.2428 27.6363 44.258 28.7311 46.3992 28.6478C47.9309 28.717 49.4176 28.1203 50.4765 27.0116C51.4031 25.9935 51.8978 24.6552 51.8562 23.2793C51.8591 22.944 51.8294 22.6093 51.7678 22.2798L46.3992 22.3241ZM56.208 21.1653C54.1332 21.1701 52.4547 22.8552 52.458 24.93C52.4613 27.0048 54.145 28.6845 56.2198 28.6829C58.2946 28.6813 59.9757 26.9989 59.9757 24.9241C59.9902 23.9197 59.5965 22.9524 58.8845 22.2438C58.1726 21.5352 57.2035 21.146 56.1991 21.1653H56.208ZM60.7008 24.9358C60.6943 22.8622 62.3683 21.175 64.4419 21.1653C65.4462 21.146 66.4153 21.5352 67.1273 22.2438C67.8392 22.9524 68.233 23.9197 68.2184 24.9241C68.2184 26.9977 66.5391 28.6797 64.4655 28.6829C62.3918 28.6861 60.7073 27.0095 60.7008 24.9358ZM62.3891 25.914C62.793 26.7594 63.6726 27.272 64.6072 27.2066C65.1939 27.193 65.7502 26.943 66.1498 26.5134C66.5495 26.0838 66.7587 25.5109 66.7299 24.9248C66.7276 23.9879 66.1528 23.1476 65.2805 22.8058C64.4081 22.464 63.4155 22.6902 62.7773 23.3762C62.1392 24.0622 61.9852 25.0686 62.3891 25.914ZM54.1273 25.9201C54.534 26.765 55.4162 27.2751 56.3514 27.206H56.3425C56.9291 27.1924 57.4854 26.9424 57.8851 26.5128C58.2848 26.0831 58.4939 25.5103 58.4652 24.9242C58.4626 23.9865 57.8867 23.1458 57.0132 22.8048C56.1398 22.4638 55.1466 22.6918 54.5094 23.3797C53.8721 24.0676 53.7206 25.0752 54.1273 25.9201ZM83.2538 21.1654C84.7201 21.2194 86.0009 22.173 86.4731 23.5623L86.6589 23.9603L81.6264 26.0387C81.9419 26.757 82.6644 27.2095 83.4484 27.1796C84.2053 27.1815 84.9075 26.7851 85.2968 26.136L86.5793 27.0204C85.8811 28.0653 84.705 28.6899 83.4484 28.6831C82.4495 28.6978 81.4875 28.3056 80.7836 27.5967C80.0797 26.8877 79.6944 25.9231 79.7161 24.9243C79.655 23.9483 80.0005 22.9906 80.6707 22.2785C81.3409 21.5665 82.2759 21.1635 83.2538 21.1654ZM81.3434 24.8182C81.3072 24.2656 81.4949 23.7216 81.8643 23.309C82.2336 22.8964 82.7536 22.6498 83.3068 22.6248C83.89 22.5864 84.4398 22.8996 84.7042 23.4208L81.3434 24.8182ZM78.911 28.462H77.2571V17.4066H78.911V28.462ZM74.551 22.0058H74.4891C73.9849 21.4422 73.2642 21.1204 72.508 21.1214C70.5004 21.2187 68.9228 22.8748 68.9228 24.8847C68.9228 26.8945 70.5004 28.5506 72.508 28.6479C73.2667 28.6607 73.9921 28.3368 74.4891 27.7635H74.5422V28.303C74.5422 29.7446 73.7727 30.5141 72.5345 30.5141C71.691 30.4943 70.9432 29.9666 70.6418 29.1786L69.2002 29.78C69.7553 31.1303 71.0745 32.0086 72.5345 31.9999C74.4714 31.9999 76.0722 30.859 76.0722 28.0819V21.3867H74.551V22.0058ZM72.6554 27.2058L72.6581 27.206H72.6493L72.6554 27.2058ZM74.1457 26.4965C73.7662 26.926 73.2279 27.1821 72.6554 27.2058C71.4742 27.1003 70.5686 26.1105 70.5686 24.9242C70.5686 23.737 71.4756 22.7466 72.6581 22.6424C73.2296 22.6717 73.765 22.9305 74.143 23.3601C74.521 23.7897 74.7095 24.3537 74.6658 24.9242C74.7146 25.4974 74.5267 26.0655 74.1457 26.4965ZM94.2207 17.4068H90.2584V28.4622H91.9123V24.27H94.2207C95.5055 24.3623 96.7342 23.7292 97.4048 22.6294C98.0753 21.5296 98.0753 20.1473 97.4048 19.0475C96.7342 17.9477 95.5055 17.3145 94.2207 17.4068ZM91.9124 22.7134H94.2208L94.2562 22.7399C95.3039 22.7399 96.1533 21.8906 96.1533 20.8428C96.1533 19.7951 95.3039 18.9457 94.2562 18.9457H91.9124V22.7134ZM104.418 21.1217C103.188 21.0482 102.031 21.7117 101.473 22.811L102.941 23.4213C103.237 22.8762 103.827 22.5571 104.445 22.6076C104.869 22.5581 105.295 22.681 105.628 22.9487C105.96 23.2165 106.171 23.6066 106.214 24.0315V24.1465C105.682 23.8653 105.09 23.7194 104.489 23.722C102.906 23.722 101.305 24.6064 101.305 26.2072C101.337 26.8968 101.646 27.5443 102.162 28.0025C102.679 28.4606 103.358 28.6903 104.047 28.6394C104.895 28.7003 105.709 28.2934 106.169 27.5781H106.222V28.4625H107.814V24.2084C107.814 22.2715 106.346 21.1483 104.462 21.1483L104.418 21.1217ZM102.924 26.2422C102.924 26.9056 103.675 27.1797 104.215 27.1797L104.259 27.2063C105.255 27.182 106.082 26.4275 106.196 25.4374C105.737 25.1813 105.218 25.053 104.692 25.066C103.861 25.066 102.924 25.3578 102.924 26.2422ZM113.616 21.3865L111.724 26.1802H111.671L109.707 21.3865H107.938L110.883 28.0905L109.203 31.814H110.928L115.456 21.3865H113.616ZM100.403 28.462H98.7491V17.4066H100.403V28.462Z" fill="white"/>
  <path d="M13.41 8.59829C13.1281 8.9468 12.989 9.38936 13.0208 9.83649V29.4001C12.9939 29.8496 13.1394 30.2924 13.4277 30.6383L13.4896 30.7003L24.43 19.751V19.4945L13.4719 8.53638L13.41 8.59829Z" fill="url(#paint0_linear)"/>
  <path d="M28.056 23.4038L24.4298 19.751V19.4946L28.056 15.833L28.1356 15.8772L32.4781 18.3448C33.7164 19.0435 33.7164 20.1933 32.4781 20.9008L28.1533 23.3595L28.056 23.4038Z" fill="url(#paint1_linear)"/>
  <path d="M28.1621 23.3588L24.4298 19.6177L13.4098 30.6377C13.9305 31.0954 14.7032 31.1177 15.2494 30.6908L28.171 23.35" fill="url(#paint2_linear)"/>
  <path d="M28.1624 15.8859L15.2409 8.54507C14.6947 8.11813 13.9219 8.14042 13.4012 8.59814L24.4301 19.6182L28.1624 15.8859Z" fill="url(#paint3_linear)"/>
  <path opacity="0.2" d="M28.056 23.2703L15.2406 30.5668C14.7161 30.9589 13.9961 30.9589 13.4717 30.5668V30.5668L13.4098 30.6287V30.6287L13.4717 30.6907V30.6907C13.9951 31.0857 14.7171 31.0857 15.2406 30.6907L28.1621 23.3499L28.056 23.2703Z" fill="black"/>
  <path opacity="0.12" d="M13.41 30.5138C13.1217 30.1679 12.9762 29.7251 13.0032 29.2756V29.4083C12.9762 29.8578 13.1217 30.3006 13.41 30.6465L13.4719 30.5846L13.41 30.5138Z" fill="black"/>
  <path opacity="0.12" d="M32.4782 20.7674L28.056 23.2704L28.1356 23.35L32.4782 20.8913C32.9797 20.6557 33.317 20.1699 33.3626 19.6177V19.6177C33.2618 20.1172 32.9352 20.5419 32.4782 20.7674Z" fill="black"/>
  <path opacity="0.25" d="M15.2407 8.66847L32.4783 18.468C32.9353 18.6936 33.2619 19.1182 33.3627 19.6177V19.6177C33.3171 19.0655 32.9798 18.5798 32.4783 18.3442L15.2407 8.54465C14.0113 7.8371 13.0208 8.42083 13.0208 9.83592V9.96859C13.0208 8.5535 14.0113 7.96977 15.2407 8.66847Z" fill="white"/>
  <defs>
    <linearGradient id="paint0_linear" x1="19.6359" y1="-4.77639" x2="2.09318" y2="-0.124225" gradientUnits="userSpaceOnUse">
      <stop stop-color="#00A0FF"/>
      <stop offset="0.01" stop-color="#00A1FF"/>
      <stop offset="0.26" stop-color="#00BEFF"/>
      <stop offset="0.51" stop-color="#00D2FF"/>
      <stop offset="0.76" stop-color="#00DFFF"/>
      <stop offset="1" stop-color="#00E3FF"/>
    </linearGradient>
    <linearGradient id="paint1_linear" x1="34.0967" y1="10.5969" x2="12.7022" y2="10.5969" gradientUnits="userSpaceOnUse">
      <stop stop-color="#FFE000"/>
      <stop offset="0.41" stop-color="#FFBD00"/>
      <stop offset="0.78" stop-color="#FFA500"/>
      <stop offset="1" stop-color="#FF9C00"/>
    </linearGradient>
    <linearGradient id="paint2_linear" x1="13.086" y1="13.8932" x2="-1.00872" y2="37.6018" gradientUnits="userSpaceOnUse">
      <stop stop-color="#FF3A44"/>
      <stop offset="1" stop-color="#C31162"/>
    </linearGradient>
    <linearGradient id="paint3_linear" x1="4.80458" y1="5.55216" x2="11.0958" y2="16.1392" gradientUnits="userSpaceOnUse">
      <stop stop-color="#32A071"/>
      <stop offset="0.07" stop-color="#2DA771"/>
      <stop offset="0.48" stop-color="#15CF74"/>
      <stop offset="0.8" stop-color="#06E775"/>
      <stop offset="1" stop-color="#00F076"/>
    </linearGradient>
  </defs>
</svg>
